<svg width="21" height="21" viewBox="0 0 21 21" fill="none" xmlns="http://www.w3.org/2000/svg">
<path d="M4.42609 8.21307L16.0185 8.21299C18.0764 8.21299 19.7447 6.53114 19.7447 4.45647C19.7447 2.3818 18.0764 0.699951 16.0185 0.699951L4.42609 0.700031M4.42609 8.21307C2.3682 8.21307 0.699951 6.53122 0.699951 4.45655C0.699951 2.38188 2.3682 0.700031 4.42609 0.700031M4.42609 8.21307C6.48399 8.21307 8.15224 6.53122 8.15224 4.45655C8.15224 2.38188 6.48399 0.700031 4.42609 0.700031M16.1738 12.3869H4.42609C2.3682 12.3869 0.699951 14.0688 0.699951 16.1435C0.699951 18.2181 2.3682 19.9 4.42609 19.9H16.1738M16.1738 12.3869C18.2317 12.3869 19.8999 14.0688 19.8999 16.1435C19.8999 18.2181 18.2317 19.9 16.1738 19.9M16.1738 12.3869C14.1159 12.3869 12.4476 14.0688 12.4476 16.1435C12.4476 18.2181 14.1159 19.9 16.1738 19.9" stroke="black" stroke-width="1.4"/>
</svg>
