<svg xmlns="http://www.w3.org/2000/svg" width="24" height="24" viewBox="0 0 24 24" fill="none">
    <path d="M0.566624 8.34788C0.199031 9.49951 -4.68666e-05 10.7264 8.27599e-09 11.9999C-4.68666e-05 13.2735 0.199078 14.5005 0.566671 15.6521L12 16.1739L23.4333 15.6522C23.8008 14.5005 24 13.2735 24 12C24 10.7264 23.8009 9.49951 23.4333 8.34783L12 7.82611L0.566624 8.34788Z" fill="#F0F0F0"/>
    <path d="M23.4332 8.34786L11.9999 7.82614L0.566499 8.34786C0.457562 8.6893 0.363765 9.03744 0.285156 9.39135H23.7144C23.6358 9.0374 23.5421 8.68921 23.4332 8.34786Z" fill="#D80027"/>
    <path d="M0.285156 14.6086C0.363672 14.9625 0.457468 15.3106 0.566406 15.6521L0.567531 15.6521L11.9997 16.1738L23.433 15.6521C23.5419 15.3107 23.6357 14.9625 23.7143 14.6086H0.285156Z" fill="#D80027"/>
    <path d="M12.0002 24C17.354 24 21.8882 20.4936 23.4335 15.6521H0.566895C2.11213 20.4935 6.64643 24 12.0002 24Z" fill="#6DA544"/>
    <path d="M11.9997 4.69974e-10C6.64594 4.68757e-05 2.11173 3.50645 0.566406 8.34786L23.433 8.34791C21.8878 3.5064 17.3536 -4.68747e-05 11.9997 4.69974e-10Z" fill="#338AF3"/>
    <path d="M5.48376 4.95652C5.48376 3.8326 6.27365 2.89369 7.32847 2.66334C7.16638 2.62791 6.99814 2.60873 6.82536 2.60873C5.52871 2.60873 4.47754 3.65986 4.47754 4.95657C4.47754 6.25328 5.52862 7.30441 6.82536 7.30441C6.99814 7.30441 7.16633 7.28519 7.32847 7.2498C6.27369 7.01936 5.48376 6.08045 5.48376 4.95652Z" fill="#F0F0F0"/>
    <path d="M8.71628 6.02374L8.87519 6.51289H9.3895L8.97344 6.81523L9.13234 7.30437L8.71628 7.00207L8.30012 7.30437L8.45908 6.81523L8.04297 6.51289H8.55728L8.71628 6.02374Z" fill="#F0F0F0"/>
    <path d="M10.3578 6.02374L10.5167 6.51289H11.0311L10.6149 6.81523L10.7739 7.30437L10.3578 7.00207L9.94168 7.30437L10.1006 6.81523L9.68457 6.51289H10.1988L10.3578 6.02374Z" fill="#F0F0F0"/>
    <path d="M11.9995 6.02374L12.1584 6.51289H12.6727L12.2566 6.81523L12.4155 7.30437L11.9995 7.00207L11.5833 7.30437L11.7423 6.81523L11.3262 6.51289H11.8405L11.9995 6.02374Z" fill="#F0F0F0"/>
    <path d="M13.6411 6.02374L13.8 6.51289H14.3143L13.8982 6.81523L14.0572 7.30437L13.6411 7.00207L13.2249 7.30437L13.3839 6.81523L12.9678 6.51289H13.4821L13.6411 6.02374Z" fill="#F0F0F0"/>
    <path d="M15.2826 6.02374L15.4415 6.51289H15.9559L15.5398 6.81523L15.6987 7.30437L15.2826 7.00207L14.8665 7.30437L15.0254 6.81523L14.6094 6.51289H15.1236L15.2826 6.02374Z" fill="#F0F0F0"/>
    <path d="M10.3578 4.31622L10.5167 4.80532H11.0311L10.6149 5.10771L10.7739 5.59681L10.3578 5.29451L9.94168 5.59681L10.1006 5.10771L9.68457 4.80532H10.1988L10.3578 4.31622Z" fill="#F0F0F0"/>
    <path d="M11.9995 4.31622L12.1584 4.80532H12.6727L12.2566 5.10771L12.4155 5.59681L11.9995 5.29451L11.5833 5.59681L11.7423 5.10771L11.3262 4.80532H11.8405L11.9995 4.31622Z" fill="#F0F0F0"/>
    <path d="M13.6411 4.31622L13.8 4.80532H14.3143L13.8982 5.10771L14.0572 5.59681L13.6411 5.29451L13.2249 5.59681L13.3839 5.10771L12.9678 4.80532H13.4821L13.6411 4.31622Z" fill="#F0F0F0"/>
    <path d="M15.2826 4.31622L15.4415 4.80532H15.9559L15.5398 5.10771L15.6987 5.59681L15.2826 5.29451L14.8665 5.59681L15.0254 5.10771L14.6094 4.80532H15.1236L15.2826 4.31622Z" fill="#F0F0F0"/>
    <path d="M11.9995 2.60864L12.1584 3.09783H12.6727L12.2566 3.40013L12.4155 3.88932L11.9995 3.58702L11.5833 3.88932L11.7423 3.40013L11.3262 3.09783H11.8405L11.9995 2.60864Z" fill="#F0F0F0"/>
    <path d="M13.6411 2.60864L13.8 3.09783H14.3143L13.8982 3.40013L14.0572 3.88932L13.6411 3.58702L13.2249 3.88932L13.3839 3.40013L12.9678 3.09783H13.4821L13.6411 2.60864Z" fill="#F0F0F0"/>
    <path d="M15.2826 2.60864L15.4415 3.09783H15.9559L15.5398 3.40013L15.6987 3.88932L15.2826 3.58702L14.8665 3.88932L15.0254 3.40013L14.6094 3.09783H15.1236L15.2826 2.60864Z" fill="#F0F0F0"/>
</svg>